<?xml version="1.0" standalone="no"?>
<!DOCTYPE svg PUBLIC "-//W3C//DTD SVG 20010904//EN"
 "http://www.w3.org/TR/2001/REC-SVG-20010904/DTD/svg10.dtd">
<svg version="1.0" xmlns="http://www.w3.org/2000/svg"
 width="162.000000pt" height="162.000000pt" viewBox="0 0 162.000000 162.000000"
 preserveAspectRatio="xMidYMid meet">
<metadata>
Created by potrace 1.14, written by Peter Selinger 2001-2017
</metadata>
<g transform="translate(0.000000,162.000000) scale(0.100000,-0.100000)"
fill="#000000" stroke="none">
<path d="M0 1539 c0 -73 2 -80 18 -74 63 24 233 56 327 62 178 9 415 -37 558
-108 200 -101 378 -260 502 -447 181 -275 246 -605 176 -895 l-18 -77 28 0 29
0 0 810 0 810 -299 0 -300 0 -4 -27 -4 -28 -2 28 -1 27 -505 0 -505 0 0 -81z"/>
<path d="M255 1500 c-60 -8 -159 -31 -223 -51 l-32 -11 0 -289 c0 -159 3 -289
7 -289 3 0 14 6 22 14 31 27 158 86 222 102 78 20 242 23 319 5 30 -7 93 -31
140 -54 119 -58 238 -176 298 -297 55 -112 72 -182 72 -305 0 -108 -16 -187
-55 -272 l-24 -53 274 0 273 0 17 73 c26 113 31 304 10 427 -80 480 -451 877
-915 981 -98 22 -316 32 -405 19z"/>
<path d="M285 963 c-77 -16 -200 -70 -252 -109 l-33 -25 0 -415 0 -414 493 0
493 0 13 32 c92 229 91 390 -5 587 -131 267 -418 407 -709 344z m-12 -808 c-3
-9 -8 -14 -10 -11 -3 3 -2 9 2 15 9 16 15 13 8 -4z"/>
</g>
</svg>
